<svg width="95" height="22" viewBox="0 0 95 22" fill="none" xmlns="http://www.w3.org/2000/svg">
<g opacity="0.3" clip-path="url(#clip0_205_23)">
<path d="M26.6152 4.67639L31.1922 4.67608C35.1118 4.67582 37.5901 7.20439 37.5904 11.1492C37.5906 15.094 35.1253 17.6229 31.1931 17.6232L26.6161 17.6235L26.6152 4.67639ZM31.0918 15.2589C33.5573 15.2587 34.9101 13.6781 34.9099 11.162C34.9098 8.63331 33.5568 7.05294 31.0913 7.0531L29.2959 7.05322L29.2964 15.259L31.0918 15.2589Z" fill="white"/>
<path d="M44.5317 10.7821C44.1777 10.5672 43.7099 10.4661 43.2168 10.4661C42.3317 10.4661 41.611 10.934 41.4214 11.7938L41.4218 17.6352L38.8172 17.6353L38.8166 8.20316L41.4338 8.20299L41.4339 9.12597C41.8385 8.45583 42.6097 7.98797 43.5453 7.9879C43.9879 7.98787 44.3925 8.07635 44.5315 8.1522L44.5317 10.7821Z" fill="white"/>
<rect x="-23.5" y="-16.5" width="159" height="59" rx="5.5" stroke="#1B1B1B"/>
<path d="M49.7541 17.8496C47.0104 17.8497 45.1264 15.8269 45.1262 12.9315C45.126 10.0234 47.0097 7.98767 49.7534 7.98748C52.4971 7.9873 54.3685 10.0102 54.3687 12.9309C54.3689 15.8263 52.4977 17.8494 49.7541 17.8496ZM49.7536 10.2128C48.4386 10.2129 47.7306 11.3508 47.7308 12.9313C47.7309 14.4865 48.4516 15.637 49.7539 15.6369C51.0562 15.6368 51.7768 14.4988 51.7767 12.931C51.7766 11.3506 51.0559 10.2127 49.7536 10.2128Z" fill="white"/>
<path d="M58.1117 21.1237L55.4945 21.1238L55.4936 8.20199L58.1109 8.20182L58.1109 8.98573C58.5281 8.47995 59.4637 7.99943 60.4752 7.99936C63.2189 7.99918 64.7742 10.2749 64.7744 12.9427C64.7746 15.5979 63.2196 17.8612 60.4759 17.8614C59.4644 17.8615 58.5287 17.3811 58.1115 16.8754L58.1117 21.1237ZM58.1113 14.4731C58.4274 15.1305 59.1229 15.573 59.8815 15.573C61.2976 15.5729 62.1446 14.4349 62.1445 12.9303C62.1444 11.413 61.2972 10.2752 59.8811 10.2753C59.0972 10.2753 58.4271 10.7432 58.1111 11.3754L58.1113 14.4731Z" fill="white"/>
<path d="M68.5426 17.6333L65.9 17.6335L65.8991 3.9151L68.5416 3.91492L68.542 8.98504C68.9592 8.47926 69.8948 7.99874 70.9063 7.99867C73.65 7.99849 75.1926 10.2363 75.1928 12.9421C75.193 15.6478 73.6506 17.8606 70.9069 17.8607C69.8954 17.8608 68.9598 17.3804 68.5425 16.8747L68.5426 17.6333ZM68.5423 14.4724C68.8332 15.1298 69.5286 15.5723 70.3125 15.5723C71.7286 15.5722 72.5757 14.4342 72.5756 12.9296C72.5755 11.4124 71.7283 10.2745 70.3122 10.2746C69.5536 10.2746 68.8329 10.7425 68.5421 11.3747L68.5423 14.4724Z" fill="white"/>
<path d="M80.7564 17.8727C78.0127 17.8729 76.1286 15.8501 76.1284 12.9547C76.1282 10.0466 78.012 8.01086 80.7557 8.01068C83.4994 8.01049 85.3708 10.0334 85.371 12.954C85.3712 15.8494 83.4874 17.8726 80.7564 17.8727ZM80.7559 10.236C79.4409 10.2361 78.7329 11.374 78.733 12.9545C78.7332 14.5097 79.4539 15.6602 80.7562 15.6601C82.0585 15.66 82.7791 14.522 82.779 12.9542C82.7789 11.3738 82.0582 10.2359 80.7559 10.236Z" fill="white"/>
<path d="M91.2503 12.764L94.6897 17.6442L91.7943 17.6444L89.7711 14.6859L87.723 17.6447L84.9793 17.6449L88.3802 12.8274L85.181 8.21269L88.0764 8.2125L89.8973 10.8928L91.7431 8.21225L94.4867 8.21207L91.2503 12.764Z" fill="white"/>
<path d="M6.94141 0.239777L0.126759 4.62759L4.84311 8.43302L11.6957 4.19693L6.94141 0.239777Z" fill="white"/>
<path d="M0.127264 12.1506L6.94251 16.626L11.6963 12.6682L4.84311 8.43303L0.127264 12.1506Z" fill="white"/>
<path d="M11.6963 12.6682L16.4506 16.6253L23.2399 12.1996L18.5362 8.4321L11.6963 12.6682Z" fill="white"/>
<path d="M23.2394 4.66395L16.4495 0.239122L11.6957 4.19691L18.5362 8.43209L23.2394 4.66395Z" fill="white"/>
<path d="M11.709 13.5153L6.94255 17.4731L4.89419 16.1456L4.89429 17.6376L11.7095 21.721L18.5115 17.6367L18.5114 16.1447L16.4759 17.4724L11.709 13.5153Z" fill="white"/>
</g>
<defs>
<clipPath id="clip0_205_23">
<rect width="94.8276" height="22" fill="white"/>
</clipPath>
</defs>
</svg>
