<svg width="82" height="28" viewBox="0 0 82 28" fill="none" xmlns="http://www.w3.org/2000/svg">
<g opacity="0.3" clip-path="url(#clip0_205_48)">
<path d="M28.0091 14.6153C28.0117 13.4788 27.6629 12.3693 27.0102 11.4388C26.3577 10.5083 25.4333 9.80231 24.3639 9.41761C24.4612 8.92158 24.5102 8.41728 24.5103 7.91178C24.5112 6.23861 23.9813 4.60826 22.9972 3.25514C22.013 1.90203 20.6252 0.895837 19.033 0.381243C17.4411 -0.133351 15.7267 -0.129844 14.1368 0.39126C12.5468 0.912365 11.163 1.92423 10.1844 3.28135C9.46233 2.72187 8.57757 2.41294 7.66415 2.40139C6.75073 2.38985 5.85845 2.67629 5.12243 3.21732C4.3864 3.75838 3.84677 4.52455 3.58524 5.39981C3.32373 6.27506 3.35458 7.21169 3.67312 8.06783C2.60121 8.45862 1.67471 9.16829 1.01819 10.1014C0.361679 11.0345 0.00666836 12.1463 0.000910749 13.2872C-0.00198709 14.4276 0.348717 15.5409 1.00474 16.4737C1.66075 17.4066 2.58983 18.1132 3.66405 18.4962C3.569 18.9921 3.52052 19.4956 3.51927 20.0004C3.51778 21.6716 4.04709 23.3001 5.03086 24.6512C6.01465 26.0022 7.40205 27.0058 8.99305 27.5175C10.5841 28.0291 12.2964 28.0223 13.8833 27.4978C15.4701 26.9736 16.8494 25.9588 17.8223 24.5999C18.5424 25.1608 19.4256 25.4715 20.3382 25.4852C21.2508 25.4988 22.1429 25.2143 22.8791 24.6751C23.6156 24.1357 24.156 23.3711 24.4183 22.497C24.6808 21.6228 24.6512 20.6871 24.3337 19.8313C25.4061 19.4412 26.3333 18.7317 26.9901 17.7985C27.6471 16.8654 28.002 15.7532 28.0075 14.612" fill="white"/>
<path d="M11.0119 12.0148L17.1412 14.8128L23.3269 9.3947C23.4159 8.94767 23.4601 8.49285 23.4586 8.03702C23.4582 6.56132 22.9855 5.1245 22.1097 3.93679C21.2339 2.74908 20.001 1.87284 18.5913 1.43629C17.1816 0.999749 15.6693 1.02581 14.2755 1.51067C12.8817 1.99553 11.6797 2.91371 10.8454 4.13089L9.81526 9.46072L11.0119 12.0148Z" fill="black"/>
<path d="M4.66845 18.5057C4.57811 18.9597 4.53287 19.4216 4.53342 19.8845C4.53355 21.3664 5.00867 22.8092 5.88906 24.0011C6.76945 25.1932 8.00872 26.0715 9.42501 26.5073C10.8413 26.9432 12.36 26.9136 13.7583 26.4229C15.1565 25.9323 16.3607 25.0063 17.1939 23.7809L18.2142 18.4625L16.8515 15.8579L10.6995 13.0551L4.66845 18.5057Z" fill="black"/>
<path d="M4.63033 7.89991L8.8304 8.89103L9.74985 4.11469C9.17855 3.68155 8.48233 3.44513 7.76543 3.44082C7.04852 3.43649 6.34949 3.66452 5.77303 4.09075C5.19657 4.51695 4.77368 5.11845 4.56768 5.80513C4.36168 6.49182 4.38366 7.22676 4.63033 7.89991Z" fill="black"/>
<path d="M4.26576 8.89944C3.34425 9.21047 2.54258 9.80095 1.97225 10.5887C1.40191 11.3765 1.09125 12.3225 1.08349 13.295C1.08289 14.2349 1.36839 15.1528 1.90204 15.9265C2.43567 16.7003 3.19218 17.2933 4.07099 17.6267L9.96366 12.2998L8.88095 9.98821L4.26576 8.89944Z" fill="black"/>
<path d="M18.2716 23.7808C18.8421 24.2117 19.5365 24.4467 20.2514 24.4504C20.9662 24.4541 21.6631 24.2267 22.2379 23.8017C22.8128 23.3768 23.2347 22.7772 23.4409 22.0927C23.647 21.4083 23.6261 20.6754 23.3814 20.0037L19.1846 19.0273L18.2716 23.7808Z" fill="black"/>
<path d="M19.1242 17.9219L23.7443 19.0009C24.6663 18.6907 25.4685 18.1006 26.039 17.3125C26.6096 16.5245 26.9198 15.5782 26.9265 14.6054C26.9257 13.6674 26.6396 12.7519 26.1064 11.9803C25.573 11.2087 24.8178 10.6175 23.9407 10.2851L17.8982 15.5762L19.1242 17.9219Z" fill="black"/>
<path d="M39.1623 19.5973L39.7223 19.5403L39.7614 20.6798C38.5153 20.8681 37.2579 20.9716 35.9977 20.9894C34.6086 20.9895 33.6242 20.5875 33.0446 19.7833C32.465 18.9792 32.1756 17.7278 32.1767 16.0294C32.1764 12.6466 33.521 10.9546 36.2103 10.9533C37.5126 10.9533 38.484 11.3168 39.1243 12.0438C39.7648 12.7709 40.086 13.9105 40.0883 15.4624L40.0118 16.5629L33.6435 16.5633C33.6435 17.6312 33.8368 18.4223 34.2231 18.9367C34.6096 19.4511 35.2813 19.7083 36.2386 19.7082C37.198 19.7114 38.1725 19.6744 39.1623 19.5973ZM38.6411 15.4104C38.641 14.2264 38.4516 13.3902 38.0727 12.9018C37.6939 12.4135 37.0764 12.1688 36.2201 12.1678C35.3639 12.1678 34.7204 12.4251 34.2895 12.9395C33.8588 13.454 33.6368 14.2777 33.6238 15.4107L38.6411 15.4104Z" fill="white"/>
<path d="M42.1072 20.9125L42.1064 8.21484L43.5536 8.21475L43.5544 20.9124L42.1072 20.9125Z" fill="white"/>
<path d="M52.6686 14.0583L52.6689 18.9257C52.669 19.4141 53.8704 19.388 53.8704 19.388L53.7972 20.6675C52.7798 20.6676 51.9381 20.7523 51.4335 20.2623C50.3407 20.7478 49.1569 20.9949 47.9612 20.987C47.0745 20.987 46.3989 20.7359 45.9344 20.2334C45.4699 19.7309 45.2381 19.0088 45.2391 18.0667C45.2391 17.1269 45.4772 16.435 45.9536 15.9911C46.4301 15.5472 47.1761 15.2758 48.192 15.177L51.2215 14.8886L51.2214 14.0584C51.2214 13.4072 51.0802 12.9373 50.7981 12.6486C50.6434 12.5035 50.4611 12.3912 50.2618 12.3185C50.0625 12.2458 49.8508 12.2141 49.639 12.2255L45.8362 12.2257L45.8361 10.9511L49.5428 10.9508C50.6368 10.9507 51.4312 11.2019 51.9261 11.7044C52.4211 12.2068 52.6686 12.9915 52.6686 14.0583ZM46.7221 17.995C46.7222 19.1789 47.2106 19.771 48.1874 19.7709C49.0686 19.7699 49.9432 19.6196 50.7741 19.3263L51.2169 19.1716L51.2167 15.9875L48.3662 16.2579C47.7867 16.31 47.3683 16.4772 47.1111 16.7594C46.8539 17.0415 46.7242 17.4534 46.7221 17.995Z" fill="white"/>
<path d="M58.319 12.2444C56.9157 12.2445 56.2141 12.7329 56.2142 13.7097C56.2142 14.1612 56.377 14.4797 56.7026 14.6652C57.0282 14.8508 57.7614 15.0439 58.902 15.2446C60.048 15.4453 60.8587 15.7253 61.3341 16.0845C61.8095 16.4437 62.0478 17.1186 62.0489 18.1095C62.049 19.1014 61.7306 19.8286 61.0935 20.291C60.4565 20.7534 59.527 20.9851 58.3049 20.9863C57.5072 20.9863 54.8439 20.6902 54.8439 20.6902L54.922 19.4367C56.4522 19.5832 57.5576 19.6922 58.3048 19.6921C59.052 19.6921 59.6202 19.5732 60.0125 19.3355C60.4048 19.0978 60.6001 18.6989 60.6001 18.1389C60.6 17.5789 60.4372 17.1996 60.0986 16.9994C59.76 16.7992 59.0307 16.6104 57.8992 16.4298C56.7678 16.2492 55.962 15.9855 55.4866 15.6388C55.0113 15.2921 54.7719 14.6475 54.7719 13.7082C54.7718 12.7689 55.0973 12.0802 55.7664 11.6244C56.4354 11.1685 57.2559 10.9487 58.2456 10.9486C59.0303 10.9486 61.7538 11.1486 61.7538 11.1486L61.7539 12.4102C60.3164 12.3469 59.1411 12.2444 58.319 12.2444Z" fill="white"/>
<path d="M69.0241 12.3967L65.9555 12.3969L65.9558 17.0104C65.9559 18.1162 66.0362 18.8429 66.1969 19.1902C66.3597 19.5385 66.7406 19.7111 67.3446 19.711L69.062 19.5953L69.1598 20.7918C68.5094 20.9122 67.8509 20.9833 67.19 21.0052C66.1872 21.0053 65.4926 20.7606 65.1062 20.2712C64.7199 19.7817 64.5271 18.8489 64.5281 17.4728L64.5278 12.397L63.1636 12.3971L63.1635 11.1436L64.5342 11.1435L64.534 8.19052L65.9617 8.19042L65.9619 11.1434L69.024 11.1432L69.0241 12.3967Z" fill="white"/>
<path d="M71.036 9.91077L71.0359 8.23077L72.4831 8.23068L72.4832 9.91068L71.036 9.91077ZM71.0367 20.9105L71.0361 11.1431L72.4833 11.143L72.484 20.9104L71.0367 20.9105Z" fill="white"/>
<path d="M78.7524 10.9489C79.4752 10.9797 80.195 11.0574 80.9077 11.1815L81.3701 11.2385L81.3132 12.4155C80.5568 12.3197 79.7963 12.2621 79.0341 12.2431C77.9401 12.2431 77.1973 12.5036 76.8055 13.0246C76.4137 13.5456 76.2175 14.5104 76.2164 15.9191C76.2165 17.33 76.4001 18.3109 76.7669 18.8623C77.1337 19.4136 77.8988 19.6903 79.0623 19.6924L81.3413 19.5196L81.4 20.7162C80.5128 20.8665 79.6167 20.9569 78.7172 20.9866C77.213 20.9867 76.1744 20.6004 75.6013 19.8277C75.0283 19.055 74.7417 17.7527 74.7415 15.9208C74.7414 14.0878 75.0501 12.8012 75.6676 12.061C76.285 11.3208 77.3133 10.9501 78.7524 10.9489Z" fill="white"/>
</g>
<defs>
<clipPath id="clip0_205_48">
<rect width="81.3953" height="28" fill="white"/>
</clipPath>
</defs>
</svg>
